<svg width="513" height="75" viewBox="0 0 513 75" fill="none" xmlns="http://www.w3.org/2000/svg">
<path d="M5.0894 6.59381V12.6595H12.9316V15.8444H5.0894V22.2781H14.612V25.495H0.704194V3.36092H14.5L14.0519 6.59381H5.0894ZM27.195 1.77649V20.5657C27.195 21.3019 27.4084 21.8247 27.8352 22.1341C28.2726 22.4435 28.8594 22.5982 29.5956 22.5982C30.0544 22.5982 30.4972 22.5502 30.924 22.4542C31.3508 22.3475 31.7562 22.2194 32.1403 22.0701L33.1806 24.9509C32.6471 25.2176 31.9963 25.4523 31.2281 25.6551C30.4705 25.8684 29.5903 25.9751 28.5874 25.9751C26.7415 25.9751 25.3438 25.447 24.3942 24.3907C23.4446 23.3344 22.9698 21.91 22.9698 20.1175V4.76931H17.8964V1.77649H27.195ZM48.0682 8.54635V22.5022H52.5334V25.495H38.8817V22.5022H43.8431V11.5392H39.0417V8.54635H48.0682ZM45.3315 0C46.1103 0 46.7398 0.240066 47.22 0.720197C47.7108 1.20033 47.9562 1.79783 47.9562 2.51269C47.9562 3.22755 47.7108 3.83039 47.22 4.32119C46.7398 4.80132 46.1103 5.04138 45.3315 5.04138C44.5526 5.04138 43.9177 4.80132 43.4269 4.32119C42.9361 3.83039 42.6907 3.22755 42.6907 2.51269C42.6907 1.79783 42.9361 1.20033 43.4269 0.720197C43.9177 0.240066 44.5526 0 45.3315 0ZM71.038 21.0298C71.038 21.6806 71.1341 22.1554 71.3261 22.4542C71.5182 22.7423 71.8276 22.961 72.2544 23.1104L71.3421 25.9431C70.4352 25.8471 69.6616 25.623 69.0215 25.2709C68.392 24.9082 67.9065 24.3694 67.5651 23.6545C66.9249 24.4334 66.114 25.0149 65.1324 25.399C64.1615 25.7831 63.1425 25.9751 62.0756 25.9751C60.3471 25.9751 58.976 25.4843 57.9624 24.5027C56.9488 23.5211 56.442 22.2461 56.442 20.6777C56.442 18.8745 57.1462 17.4875 58.5546 16.5165C59.9737 15.5349 61.9795 15.0441 64.5722 15.0441H66.9409V14.1319C66.9409 13.1289 66.6315 12.4034 66.0126 11.9553C65.3938 11.4965 64.5029 11.2671 63.3399 11.2671C62.7958 11.2671 62.1129 11.3418 61.2913 11.4912C60.4805 11.6299 59.6429 11.8486 58.7787 12.1473L57.7704 9.25054C58.848 8.8451 59.931 8.54635 61.0193 8.3543C62.1182 8.16224 63.1158 8.06622 64.0121 8.06622C66.3914 8.06622 68.1572 8.57302 69.3096 9.58664C70.4619 10.5896 71.038 12.014 71.038 13.8598V21.0298ZM63.4519 22.9183C64.0921 22.9183 64.7376 22.7369 65.3885 22.3741C66.05 22.0114 66.5675 21.5046 66.9409 20.8537V17.5568H65.2764C63.708 17.5568 62.5717 17.8076 61.8675 18.309C61.174 18.8105 60.8272 19.52 60.8272 20.4376C60.8272 21.2272 61.0513 21.8407 61.4994 22.2781C61.9475 22.7049 62.5984 22.9183 63.4519 22.9183ZM83.1569 22.8543C84.1491 22.8543 84.944 22.6836 85.5415 22.3421C86.1497 21.99 86.4538 21.4992 86.4538 20.8697C86.4538 20.4536 86.3524 20.1015 86.1497 19.8134C85.9576 19.5254 85.5735 19.2586 84.9974 19.0132C84.4212 18.7572 83.557 18.4744 82.4046 18.165C81.3163 17.8876 80.3614 17.5462 79.5399 17.1407C78.729 16.7246 78.0941 16.1911 77.6353 15.5403C77.1872 14.8894 76.9632 14.0679 76.9632 13.0756C76.9632 12.0833 77.2406 11.2137 77.7954 10.4669C78.3502 9.70934 79.1504 9.12251 80.196 8.70639C81.2523 8.27961 82.522 8.06622 84.0051 8.06622C85.4562 8.06622 86.7258 8.25827 87.8141 8.64237C88.9024 9.01581 89.836 9.48527 90.6149 10.0508L88.8864 12.6275C88.2036 12.19 87.462 11.8379 86.6618 11.5712C85.8723 11.2938 85.0187 11.1551 84.1011 11.1551C83.1088 11.1551 82.3833 11.2991 81.9245 11.5872C81.4764 11.8753 81.2523 12.2754 81.2523 12.7875C81.2523 13.1503 81.3644 13.4597 81.5884 13.7158C81.8232 13.9612 82.2393 14.2012 82.8368 14.436C83.4449 14.66 84.3092 14.9321 85.4295 15.2522C86.5284 15.5509 87.4834 15.903 88.2943 16.3085C89.1158 16.7139 89.7507 17.2527 90.1988 17.9249C90.6469 18.5971 90.871 19.4774 90.871 20.5657C90.871 21.7927 90.5135 22.8063 89.7987 23.6065C89.0838 24.4067 88.1396 25.0042 86.9659 25.399C85.8029 25.7831 84.5386 25.9751 83.1729 25.9751C81.5724 25.9751 80.1747 25.7457 78.9797 25.287C77.7847 24.8282 76.7711 24.236 75.9389 23.5105L78.1315 21.0458C78.793 21.5686 79.5452 22.0007 80.3881 22.3421C81.2417 22.6836 82.1646 22.8543 83.1569 22.8543ZM124.839 8.54635V22.5022H129.305V25.495H115.653V22.5022H120.614V11.5392H115.813V8.54635H124.839ZM122.103 0C122.881 0 123.511 0.240066 123.991 0.720197C124.482 1.20033 124.727 1.79783 124.727 2.51269C124.727 3.22755 124.482 3.83039 123.991 4.32119C123.511 4.80132 122.881 5.04138 122.103 5.04138C121.324 5.04138 120.689 4.80132 120.198 4.32119C119.707 3.83039 119.462 3.22755 119.462 2.51269C119.462 1.79783 119.707 1.20033 120.198 0.720197C120.689 0.240066 121.324 0 122.103 0ZM140.735 22.8543C141.727 22.8543 142.522 22.6836 143.12 22.3421C143.728 21.99 144.032 21.4992 144.032 20.8697C144.032 20.4536 143.931 20.1015 143.728 19.8134C143.536 19.5254 143.152 19.2586 142.576 19.0132C142 18.7572 141.135 18.4744 139.983 18.165C138.895 17.8876 137.94 17.5462 137.118 17.1407C136.307 16.7246 135.672 16.1911 135.214 15.5403C134.766 14.8894 134.541 14.0679 134.541 13.0756C134.541 12.0833 134.819 11.2137 135.374 10.4669C135.929 9.70934 136.729 9.12251 137.774 8.70639C138.831 8.27961 140.1 8.06622 141.583 8.06622C143.034 8.06622 144.304 8.25827 145.392 8.64237C146.481 9.01581 147.414 9.48527 148.193 10.0508L146.465 12.6275C145.782 12.19 145.04 11.8379 144.24 11.5712C143.451 11.2938 142.597 11.1551 141.679 11.1551C140.687 11.1551 139.962 11.2991 139.503 11.5872C139.055 11.8753 138.831 12.2754 138.831 12.7875C138.831 13.1503 138.943 13.4597 139.167 13.7158C139.401 13.9612 139.818 14.2012 140.415 14.436C141.023 14.66 141.887 14.9321 143.008 15.2522C144.107 15.5509 145.062 15.903 145.873 16.3085C146.694 16.7139 147.329 17.2527 147.777 17.9249C148.225 18.5971 148.449 19.4774 148.449 20.5657C148.449 21.7927 148.092 22.8063 147.377 23.6065C146.662 24.4067 145.718 25.0042 144.544 25.399C143.381 25.7831 142.117 25.9751 140.751 25.9751C139.151 25.9751 137.753 25.7457 136.558 25.287C135.363 24.8282 134.349 24.236 133.517 23.5105L135.71 21.0458C136.371 21.5686 137.124 22.0007 137.966 22.3421C138.82 22.6836 139.743 22.8543 140.735 22.8543ZM186.195 21.0298C186.195 21.6806 186.291 22.1554 186.483 22.4542C186.675 22.7423 186.984 22.961 187.411 23.1104L186.499 25.9431C185.592 25.8471 184.818 25.623 184.178 25.2709C183.549 24.9082 183.063 24.3694 182.722 23.6545C182.082 24.4334 181.271 25.0149 180.289 25.399C179.318 25.7831 178.299 25.9751 177.232 25.9751C175.504 25.9751 174.133 25.4843 173.119 24.5027C172.105 23.5211 171.599 22.2461 171.599 20.6777C171.599 18.8745 172.303 17.4875 173.711 16.5165C175.13 15.5349 177.136 15.0441 179.729 15.0441H182.098V14.1319C182.098 13.1289 181.788 12.4034 181.169 11.9553C180.55 11.4965 179.66 11.2671 178.497 11.2671C177.952 11.2671 177.27 11.3418 176.448 11.4912C175.637 11.6299 174.8 11.8486 173.935 12.1473L172.927 9.25054C174.005 8.8451 175.088 8.54635 176.176 8.3543C177.275 8.16224 178.272 8.06622 179.169 8.06622C181.548 8.06622 183.314 8.57302 184.466 9.58664C185.619 10.5896 186.195 12.014 186.195 13.8598V21.0298ZM178.609 22.9183C179.249 22.9183 179.894 22.7369 180.545 22.3741C181.207 22.0114 181.724 21.5046 182.098 20.8537V17.5568H180.433C178.865 17.5568 177.728 17.8076 177.024 18.309C176.331 18.8105 175.984 19.52 175.984 20.4376C175.984 21.2272 176.208 21.8407 176.656 22.2781C177.104 22.7049 177.755 22.9183 178.609 22.9183ZM474.086 21.0298C474.086 21.6806 474.182 22.1554 474.374 22.4542C474.566 22.7423 474.876 22.961 475.303 23.1104L474.39 25.9431C473.483 25.8471 472.71 25.623 472.07 25.2709C471.44 24.9082 470.955 24.3694 470.613 23.6545C469.973 24.4334 469.162 25.0149 468.181 25.399C467.21 25.7831 466.191 25.9751 465.124 25.9751C463.395 25.9751 462.024 25.4843 461.011 24.5027C459.997 23.5211 459.49 22.2461 459.49 20.6777C459.49 18.8745 460.194 17.4875 461.603 16.5165C463.022 15.5349 465.028 15.0441 467.621 15.0441H469.989V14.1319C469.989 13.1289 469.68 12.4034 469.061 11.9553C468.442 11.4965 467.551 11.2671 466.388 11.2671C465.844 11.2671 465.161 11.3418 464.34 11.4912C463.529 11.6299 462.691 11.8486 461.827 12.1473L460.819 9.25054C461.896 8.8451 462.979 8.54635 464.068 8.3543C465.167 8.16224 466.164 8.06622 467.06 8.06622C469.44 8.06622 471.206 8.57302 472.358 9.58664C473.51 10.5896 474.086 12.014 474.086 13.8598V21.0298ZM466.5 22.9183C467.14 22.9183 467.786 22.7369 468.437 22.3741C469.098 22.0114 469.616 21.5046 469.989 20.8537V17.5568H468.325C466.756 17.5568 465.62 17.8076 464.916 18.309C464.222 18.8105 463.875 19.52 463.875 20.4376C463.875 21.2272 464.1 21.8407 464.548 22.2781C464.996 22.7049 465.647 22.9183 466.5 22.9183ZM479.755 25.495V8.54635H483.436L483.74 10.6429C484.466 9.78936 485.282 9.14918 486.189 8.7224C487.096 8.28494 488.072 8.06622 489.118 8.06622C490.644 8.06622 491.807 8.509 492.607 9.39458C493.407 10.2695 493.807 11.5018 493.807 13.0916V25.495H489.582V14.7401C489.582 13.8865 489.529 13.2036 489.422 12.6915C489.315 12.1687 489.113 11.7952 488.814 11.5712C488.515 11.3364 488.083 11.2191 487.517 11.2191C487.059 11.2191 486.616 11.3204 486.189 11.5232C485.773 11.7259 485.378 11.998 485.005 12.3394C484.642 12.6808 484.301 13.0596 483.981 13.4757V25.495H479.755ZM508.775 1.32836L513 1.77649V25.495H509.255L508.999 23.4945C508.476 24.2413 507.82 24.8442 507.03 25.303C506.241 25.7511 505.323 25.9751 504.278 25.9751C502.848 25.9751 501.664 25.6017 500.725 24.8548C499.796 24.108 499.103 23.0623 498.644 21.718C498.196 20.3629 497.972 18.7892 497.972 16.9967C497.972 15.2682 498.239 13.7318 498.772 12.3874C499.306 11.043 500.074 9.98674 501.077 9.21853C502.09 8.45032 503.291 8.06622 504.678 8.06622C505.51 8.06622 506.267 8.21026 506.95 8.49834C507.633 8.78641 508.241 9.2132 508.775 9.77869V1.32836ZM505.814 11.2191C504.747 11.2191 503.904 11.6832 503.285 12.6115C502.677 13.5291 502.373 14.9961 502.373 17.0127C502.373 18.4317 502.501 19.568 502.757 20.4216C503.013 21.2645 503.376 21.8727 503.845 22.2461C504.315 22.6196 504.87 22.8063 505.51 22.8063C506.214 22.8063 506.833 22.5982 507.366 22.1821C507.911 21.7553 508.38 21.2272 508.775 20.5977V12.8835C508.38 12.3607 507.937 11.9553 507.446 11.6672C506.966 11.3685 506.422 11.2191 505.814 11.2191Z" fill="white"/>
<path d="M224.82 25.495H219.859L218.146 13.7318L216.322 25.495H211.457L208.752 8.54635H212.721L214.193 22.8703L216.29 10.6909H220.179L222.1 22.8703L223.604 8.54635H227.413L224.82 25.495ZM233.85 18.309C233.936 19.3653 234.176 20.2242 234.57 20.8857C234.976 21.5473 235.493 22.0327 236.123 22.3421C236.752 22.6516 237.451 22.8063 238.219 22.8063C239.03 22.8063 239.793 22.6782 240.508 22.4222C241.223 22.1661 241.927 21.8087 242.621 21.3499L244.381 23.7665C243.592 24.428 242.647 24.9615 241.548 25.367C240.46 25.7724 239.26 25.9751 237.947 25.9751C236.112 25.9751 234.565 25.5964 233.306 24.8388C232.058 24.0813 231.114 23.0303 230.473 21.686C229.833 20.3416 229.513 18.7945 229.513 17.0447C229.513 15.3589 229.828 13.8385 230.457 12.4834C231.087 11.1284 231.994 10.0561 233.178 9.26655C234.362 8.46633 235.792 8.06622 237.467 8.06622C239.025 8.06622 240.369 8.40764 241.5 9.0905C242.631 9.77335 243.506 10.755 244.125 12.0353C244.744 13.305 245.053 14.8361 245.053 16.6286C245.053 16.9166 245.043 17.2101 245.021 17.5088C245.011 17.8076 244.995 18.0743 244.973 18.309H233.85ZM237.483 11.043C236.459 11.043 235.616 11.4111 234.955 12.1473C234.304 12.8729 233.92 14.0252 233.802 15.6043H240.94C240.919 14.1746 240.62 13.0596 240.044 12.2594C239.478 11.4485 238.625 11.043 237.483 11.043ZM253.667 10.4509C254.233 9.704 254.9 9.12251 255.668 8.70639C256.447 8.27961 257.284 8.06622 258.18 8.06622C259.664 8.06622 260.864 8.43432 261.781 9.17052C262.71 9.89605 263.387 10.9257 263.814 12.2594C264.251 13.5931 264.47 15.1668 264.47 16.9807C264.47 18.7198 264.214 20.2669 263.702 21.6219C263.19 22.977 262.427 24.0439 261.413 24.8228C260.41 25.591 259.178 25.9751 257.716 25.9751C255.881 25.9751 254.435 25.2763 253.379 23.8786L253.187 25.495H249.442V1.77649L253.667 1.32836V10.4509ZM256.628 22.8223C257.706 22.8223 258.549 22.3635 259.157 21.4459C259.765 20.5283 260.069 19.0559 260.069 17.0287C260.069 15.599 259.941 14.4626 259.685 13.6197C259.439 12.7662 259.082 12.158 258.613 11.7952C258.154 11.4218 257.599 11.2351 256.948 11.2351C256.244 11.2351 255.62 11.4485 255.076 11.8753C254.542 12.302 254.073 12.8302 253.667 13.4597V21.0458C254.03 21.6113 254.457 22.0487 254.948 22.3581C255.438 22.6676 255.999 22.8223 256.628 22.8223ZM297.654 1.32836L301.879 1.77649V25.495H298.134L297.878 23.4945C297.356 24.2413 296.699 24.8442 295.91 25.303C295.12 25.7511 294.203 25.9751 293.157 25.9751C291.727 25.9751 290.543 25.6017 289.604 24.8548C288.676 24.108 287.982 23.0623 287.524 21.718C287.075 20.3629 286.851 18.7892 286.851 16.9967C286.851 15.2682 287.118 13.7318 287.652 12.3874C288.185 11.043 288.953 9.98674 289.956 9.21853C290.97 8.45032 292.17 8.06622 293.557 8.06622C294.389 8.06622 295.147 8.21026 295.83 8.49834C296.513 8.78641 297.121 9.2132 297.654 9.77869V1.32836ZM294.693 11.2191C293.627 11.2191 292.784 11.6832 292.165 12.6115C291.557 13.5291 291.253 14.9961 291.253 17.0127C291.253 18.4317 291.381 19.568 291.637 20.4216C291.893 21.2645 292.255 21.8727 292.725 22.2461C293.194 22.6196 293.749 22.8063 294.389 22.8063C295.094 22.8063 295.712 22.5982 296.246 22.1821C296.79 21.7553 297.26 21.2272 297.654 20.5977V12.8835C297.26 12.3607 296.817 11.9553 296.326 11.6672C295.846 11.3685 295.302 11.2191 294.693 11.2191ZM310.621 18.309C310.707 19.3653 310.947 20.2242 311.342 20.8857C311.747 21.5473 312.264 22.0327 312.894 22.3421C313.524 22.6516 314.222 22.8063 314.991 22.8063C315.801 22.8063 316.564 22.6782 317.279 22.4222C317.994 22.1661 318.698 21.8087 319.392 21.3499L321.152 23.7665C320.363 24.428 319.418 24.9615 318.319 25.367C317.231 25.7724 316.031 25.9751 314.718 25.9751C312.883 25.9751 311.336 25.5964 310.077 24.8388C308.829 24.0813 307.885 23.0303 307.244 21.686C306.604 20.3416 306.284 18.7945 306.284 17.0447C306.284 15.3589 306.599 13.8385 307.228 12.4834C307.858 11.1284 308.765 10.0561 309.949 9.26655C311.134 8.46633 312.563 8.06622 314.238 8.06622C315.796 8.06622 317.14 8.40764 318.271 9.0905C319.402 9.77335 320.277 10.755 320.896 12.0353C321.515 13.305 321.824 14.8361 321.824 16.6286C321.824 16.9166 321.814 17.2101 321.792 17.5088C321.782 17.8076 321.766 18.0743 321.744 18.309H310.621ZM314.254 11.043C313.23 11.043 312.387 11.4111 311.726 12.1473C311.075 12.8729 310.691 14.0252 310.573 15.6043H317.711C317.69 14.1746 317.391 13.0596 316.815 12.2594C316.25 11.4485 315.396 11.043 314.254 11.043ZM332.663 22.8543C333.655 22.8543 334.45 22.6836 335.048 22.3421C335.656 21.99 335.96 21.4992 335.96 20.8697C335.96 20.4536 335.858 20.1015 335.656 19.8134C335.464 19.5254 335.08 19.2586 334.503 19.0132C333.927 18.7572 333.063 18.4744 331.911 18.165C330.822 17.8876 329.867 17.5462 329.046 17.1407C328.235 16.7246 327.6 16.1911 327.141 15.5403C326.693 14.8894 326.469 14.0679 326.469 13.0756C326.469 12.0833 326.747 11.2137 327.301 10.4669C327.856 9.70934 328.656 9.12251 329.702 8.70639C330.758 8.27961 332.028 8.06622 333.511 8.06622C334.962 8.06622 336.232 8.25827 337.32 8.64237C338.409 9.01581 339.342 9.48527 340.121 10.0508L338.393 12.6275C337.71 12.19 336.968 11.8379 336.168 11.5712C335.378 11.2938 334.525 11.1551 333.607 11.1551C332.615 11.1551 331.889 11.2991 331.431 11.5872C330.982 11.8753 330.758 12.2754 330.758 12.7875C330.758 13.1503 330.87 13.4597 331.094 13.7158C331.329 13.9612 331.745 14.2012 332.343 14.436C332.951 14.66 333.815 14.9321 334.936 15.2522C336.035 15.5509 336.989 15.903 337.8 16.3085C338.622 16.7139 339.257 17.2527 339.705 17.9249C340.153 18.5971 340.377 19.4774 340.377 20.5657C340.377 21.7927 340.02 22.8063 339.305 23.6065C338.59 24.4067 337.646 25.0042 336.472 25.399C335.309 25.7831 334.045 25.9751 332.679 25.9751C331.078 25.9751 329.681 25.7457 328.486 25.287C327.291 24.8282 326.277 24.236 325.445 23.5105L327.638 21.0458C328.299 21.5686 329.051 22.0007 329.894 22.3421C330.748 22.6836 331.671 22.8543 332.663 22.8543ZM355.153 8.54635V22.5022H359.618V25.495H345.966V22.5022H350.927V11.5392H346.126V8.54635H355.153ZM352.416 0C353.195 0 353.824 0.240066 354.304 0.720197C354.795 1.20033 355.041 1.79783 355.041 2.51269C355.041 3.22755 354.795 3.83039 354.304 4.32119C353.824 4.80132 353.195 5.04138 352.416 5.04138C351.637 5.04138 351.002 4.80132 350.511 4.32119C350.021 3.83039 349.775 3.22755 349.775 2.51269C349.775 1.79783 350.021 1.20033 350.511 0.720197C351.002 0.240066 351.637 0 352.416 0ZM379.211 6.16169L380.267 9.4586C379.627 9.68266 378.907 9.8427 378.106 9.93873C377.306 10.0241 376.389 10.0668 375.354 10.0668C376.389 10.5149 377.173 11.0857 377.706 11.7792C378.25 12.4621 378.523 13.3317 378.523 14.388C378.523 15.4869 378.24 16.4685 377.674 17.3328C377.119 18.197 376.325 18.8745 375.29 19.3653C374.265 19.8561 373.044 20.1015 371.625 20.1015C371.187 20.1015 370.798 20.0802 370.456 20.0375C370.115 19.9948 369.784 19.9361 369.464 19.8615C369.251 19.9788 369.085 20.1495 368.968 20.3736C368.851 20.5977 368.792 20.8271 368.792 21.0618C368.792 21.3819 368.915 21.6593 369.16 21.894C369.416 22.1181 369.96 22.2301 370.792 22.2301H373.673C374.922 22.2301 376.015 22.4435 376.954 22.8703C377.904 23.2864 378.64 23.8519 379.163 24.5668C379.696 25.2816 379.963 26.1032 379.963 27.0314C379.963 28.7386 379.221 30.0723 377.738 31.0325C376.255 31.9928 374.089 32.4729 371.241 32.4729C369.203 32.4729 367.613 32.2649 366.471 31.8488C365.34 31.4326 364.545 30.8245 364.087 30.0243C363.628 29.2347 363.398 28.2798 363.398 27.1595H367.159C367.159 27.7036 367.266 28.1517 367.479 28.5038C367.704 28.8559 368.114 29.1173 368.712 29.2881C369.32 29.4588 370.19 29.5441 371.321 29.5441C372.452 29.5441 373.337 29.4534 373.977 29.272C374.628 29.0907 375.087 28.8293 375.354 28.4878C375.62 28.1571 375.754 27.7676 375.754 27.3195C375.754 26.7113 375.498 26.2365 374.986 25.8951C374.473 25.5537 373.748 25.383 372.809 25.383H370.008C368.301 25.383 367.058 25.0522 366.279 24.3907C365.5 23.7185 365.111 22.945 365.111 22.0701C365.111 21.4726 365.271 20.9017 365.591 20.3576C365.922 19.8028 366.391 19.3333 366.999 18.9492C365.954 18.3944 365.196 17.7329 364.727 16.9647C364.268 16.1858 364.039 15.2469 364.039 14.1479C364.039 12.9209 364.348 11.8539 364.967 10.947C365.586 10.0401 366.445 9.3359 367.544 8.83443C368.642 8.33296 369.907 8.08222 371.337 8.08222C372.649 8.09289 373.764 8.01287 374.681 7.84216C375.61 7.67144 376.426 7.43671 377.13 7.13796C377.845 6.83921 378.539 6.51379 379.211 6.16169ZM371.417 10.899C370.414 10.899 369.645 11.1924 369.112 11.7792C368.589 12.3661 368.328 13.1449 368.328 14.1159C368.328 15.1188 368.6 15.9137 369.144 16.5005C369.688 17.0874 370.451 17.3808 371.433 17.3808C372.404 17.3808 373.14 17.098 373.641 16.5325C374.153 15.9564 374.409 15.1348 374.409 14.0679C374.409 13.0009 374.153 12.206 373.641 11.6832C373.14 11.1604 372.398 10.899 371.417 10.899ZM383.791 25.495V8.54635H387.472L387.777 10.6429C388.502 9.78936 389.318 9.14918 390.225 8.7224C391.132 8.28494 392.108 8.06622 393.154 8.06622C394.68 8.06622 395.843 8.509 396.643 9.39458C397.443 10.2695 397.843 11.5018 397.843 13.0916V25.495H393.618V14.7401C393.618 13.8865 393.565 13.2036 393.458 12.6915C393.351 12.1687 393.149 11.7952 392.85 11.5712C392.551 11.3364 392.119 11.2191 391.554 11.2191C391.095 11.2191 390.652 11.3204 390.225 11.5232C389.809 11.7259 389.414 11.998 389.041 12.3394C388.678 12.6808 388.337 13.0596 388.017 13.4757V25.495H383.791ZM406.585 18.309C406.671 19.3653 406.911 20.2242 407.305 20.8857C407.711 21.5473 408.228 22.0327 408.858 22.3421C409.487 22.6516 410.186 22.8063 410.954 22.8063C411.765 22.8063 412.528 22.6782 413.243 22.4222C413.958 22.1661 414.662 21.8087 415.356 21.3499L417.116 23.7665C416.327 24.428 415.382 24.9615 414.283 25.367C413.195 25.7724 411.995 25.9751 410.682 25.9751C408.847 25.9751 407.3 25.5964 406.041 24.8388C404.793 24.0813 403.848 23.0303 403.208 21.686C402.568 20.3416 402.248 18.7945 402.248 17.0447C402.248 15.3589 402.563 13.8385 403.192 12.4834C403.822 11.1284 404.729 10.0561 405.913 9.26655C407.097 8.46633 408.527 8.06622 410.202 8.06622C411.76 8.06622 413.104 8.40764 414.235 9.0905C415.366 9.77335 416.241 10.755 416.86 12.0353C417.479 13.305 417.788 14.8361 417.788 16.6286C417.788 16.9166 417.778 17.2101 417.756 17.5088C417.746 17.8076 417.73 18.0743 417.708 18.309H406.585ZM410.218 11.043C409.194 11.043 408.351 11.4111 407.69 12.1473C407.039 12.8729 406.655 14.0252 406.537 15.6043H413.675C413.654 14.1746 413.355 13.0596 412.779 12.2594C412.213 11.4485 411.36 11.043 410.218 11.043ZM422.337 25.495V22.5662H424.722V11.4591H422.337V8.54635H427.939L428.723 12.4354C429.342 10.995 430.121 9.91206 431.059 9.18652C431.998 8.45032 433.177 8.08222 434.596 8.08222C435.141 8.08222 435.621 8.1249 436.037 8.21026C436.464 8.29561 436.869 8.40764 437.253 8.54635L435.989 12.0993C435.658 12.014 435.343 11.95 435.045 11.9073C434.746 11.8539 434.41 11.8273 434.036 11.8273C432.863 11.8273 431.838 12.286 430.963 13.2036C430.099 14.1105 429.427 15.3429 428.947 16.9006V22.5662H432.324V25.495H422.337ZM433.684 15.1562V10.6589L434.26 8.54635H437.253L436.501 15.1562H433.684ZM10.4509 43.3399C11.5819 43.3399 12.5848 43.4306 13.4597 43.612C14.3346 43.7934 15.1295 44.0388 15.8444 44.3482L14.628 47.197C14.0625 46.9622 13.4704 46.7915 12.8515 46.6848C12.2327 46.5781 11.6139 46.5248 10.995 46.5248C9.92806 46.5248 9.14918 46.7275 8.65838 47.133C8.17825 47.5277 7.93818 48.1626 7.93818 49.0375V51.7102H13.5397L13.0756 54.735H7.93818V67.5066H3.72903V54.735H7.15452e-07V51.7102H3.72903V48.9415C3.72903 47.8425 3.99577 46.8769 4.52925 46.0447C5.06273 45.2018 5.83094 44.5402 6.83388 44.0601C7.84749 43.58 9.05316 43.3399 10.4509 43.3399ZM19.2888 67.5066V64.5777H21.6735V53.4707H19.2888V50.5579H24.8903L25.6746 54.447C26.2934 53.0066 27.0723 51.9236 28.0112 51.1981C28.9501 50.4619 30.1291 50.0938 31.5482 50.0938C32.0923 50.0938 32.5725 50.1364 32.9886 50.2218C33.4154 50.3072 33.8208 50.4192 34.2049 50.5579L32.9406 54.1109C32.6098 54.0255 32.295 53.9615 31.9963 53.9188C31.6975 53.8655 31.3615 53.8388 30.988 53.8388C29.8144 53.8388 28.7901 54.2976 27.9152 55.2152C27.0509 56.1221 26.3788 57.3544 25.8986 58.9122V64.5777H29.2755V67.5066H19.2888ZM30.6359 57.1677V52.6705L31.2121 50.5579H34.2049L33.4527 57.1677H30.6359ZM45.3635 50.0778C47.0493 50.0778 48.479 50.4459 49.6526 51.1821C50.8263 51.9183 51.7172 52.9586 52.3254 54.3029C52.9442 55.6366 53.2536 57.1997 53.2536 58.9922C53.2536 60.8274 52.9442 62.4172 52.3254 63.7615C51.7065 65.1059 50.8103 66.1462 49.6366 66.8824C48.463 67.6186 47.0333 67.9867 45.3475 67.9867C43.6723 67.9867 42.2426 67.6293 41.0583 66.9144C39.8846 66.1889 38.9884 65.1592 38.3695 63.8255C37.7507 62.4812 37.4413 60.8807 37.4413 59.0242C37.4413 57.2531 37.7507 55.6953 38.3695 54.3509C38.9884 53.0066 39.89 51.9609 41.0743 51.2141C42.2586 50.4565 43.6883 50.0778 45.3635 50.0778ZM45.3635 53.2626C44.1791 53.2626 43.2936 53.7268 42.7067 54.655C42.1306 55.5833 41.8425 57.0397 41.8425 59.0242C41.8425 61.0301 42.1306 62.4972 42.7067 63.4254C43.2829 64.343 44.1631 64.8018 45.3475 64.8018C46.5318 64.8018 47.412 64.343 47.9882 63.4254C48.5643 62.4972 48.8524 61.0194 48.8524 58.9922C48.8524 57.0183 48.5643 55.5726 47.9882 54.655C47.412 53.7268 46.5371 53.2626 45.3635 53.2626ZM57.5143 67.5066V50.5579H61.1953L61.4994 52.6545C62.2249 51.8009 63.0412 51.1607 63.9481 50.7339C64.855 50.2965 65.8313 50.0778 66.8769 50.0778C68.4026 50.0778 69.5656 50.5206 70.3658 51.4061C71.1661 52.281 71.5662 53.5134 71.5662 55.1031V67.5066H67.341V56.7516C67.341 55.898 67.2877 55.2152 67.181 54.703C67.0743 54.1802 66.8715 53.8068 66.5728 53.5827C66.274 53.348 65.8419 53.2306 65.2764 53.2306C64.8176 53.2306 64.3749 53.332 63.9481 53.5347C63.532 53.7374 63.1372 54.0095 62.7638 54.3509C62.401 54.6924 62.0596 55.0711 61.7395 55.4873V67.5066H57.5143ZM91.3351 66.5623C90.7056 66.9784 89.9427 67.3198 89.0465 67.5866C88.1502 67.8533 87.1793 67.9867 86.1337 67.9867C84.0638 67.9867 82.506 67.4532 81.4604 66.3862C80.4148 65.3086 79.892 63.8789 79.892 62.0971V53.5507H76.2109V50.5579H79.892V46.8289L84.1171 46.3167V50.5579H89.7187L89.2865 53.5507H84.1171V62.0811C84.1171 62.956 84.3305 63.5961 84.7573 64.0016C85.1841 64.407 85.8723 64.6098 86.8219 64.6098C87.43 64.6098 87.9848 64.5404 88.4863 64.4017C88.9985 64.2523 89.4626 64.0656 89.8787 63.8415L91.3351 66.5623ZM96.1719 60.4486V57.0877H109.68V60.4486H96.1719ZM118.694 60.3206C118.779 61.3769 119.019 62.2358 119.414 62.8973C119.819 63.5588 120.337 64.0443 120.966 64.3537C121.596 64.6631 122.295 64.8178 123.063 64.8178C123.874 64.8178 124.637 64.6898 125.351 64.4337C126.066 64.1776 126.771 63.8202 127.464 63.3614L129.225 65.7781C128.435 66.4396 127.491 66.9731 126.392 67.3785C125.303 67.784 124.103 67.9867 122.791 67.9867C120.956 67.9867 119.408 67.6079 118.149 66.8504C116.901 66.0928 115.957 65.0419 115.317 63.6975C114.677 62.3531 114.356 60.806 114.356 59.0562C114.356 57.3704 114.671 55.85 115.301 54.495C115.93 53.1399 116.837 52.0676 118.021 51.2781C119.206 50.4779 120.635 50.0778 122.311 50.0778C123.868 50.0778 125.213 50.4192 126.344 51.102C127.475 51.7849 128.35 52.7665 128.968 54.0469C129.587 55.3165 129.897 56.8476 129.897 58.6401C129.897 58.9282 129.886 59.2216 129.865 59.5204C129.854 59.8191 129.838 60.0858 129.817 60.3206H118.694ZM122.327 53.0546C121.302 53.0546 120.459 53.4227 119.798 54.1589C119.147 54.8844 118.763 56.0367 118.646 57.6158H125.784C125.762 56.1861 125.463 55.0711 124.887 54.2709C124.322 53.46 123.468 53.0546 122.327 53.0546ZM134.285 67.5066V50.5579H137.966L138.271 52.6545C138.996 51.8009 139.812 51.1607 140.719 50.7339C141.626 50.2965 142.602 50.0778 143.648 50.0778C145.174 50.0778 146.337 50.5206 147.137 51.4061C147.937 52.281 148.337 53.5134 148.337 55.1031V67.5066H144.112V56.7516C144.112 55.898 144.059 55.2152 143.952 54.703C143.845 54.1802 143.643 53.8068 143.344 53.5827C143.045 53.348 142.613 53.2306 142.048 53.2306C141.589 53.2306 141.146 53.332 140.719 53.5347C140.303 53.7374 139.908 54.0095 139.535 54.3509C139.172 54.6924 138.831 55.0711 138.511 55.4873V67.5066H134.285ZM163.305 43.3399L167.53 43.788V67.5066H163.785L163.529 65.506C163.006 66.2529 162.35 66.8557 161.56 67.3145C160.771 67.7626 159.853 67.9867 158.808 67.9867C157.378 67.9867 156.194 67.6133 155.255 66.8664C154.326 66.1195 153.633 65.0739 153.174 63.7295C152.726 62.3745 152.502 60.8007 152.502 59.0082C152.502 57.2797 152.769 55.7433 153.302 54.399C153.836 53.0546 154.604 51.9983 155.607 51.2301C156.62 50.4619 157.821 50.0778 159.208 50.0778C160.04 50.0778 160.798 50.2218 161.48 50.5099C162.163 50.798 162.771 51.2247 163.305 51.7902V43.3399ZM160.344 53.2306C159.277 53.2306 158.434 53.6948 157.815 54.623C157.207 55.5406 156.903 57.0077 156.903 59.0242C156.903 60.4433 157.031 61.5796 157.287 62.4332C157.543 63.2761 157.906 63.8842 158.376 64.2577C158.845 64.6311 159.4 64.8178 160.04 64.8178C160.744 64.8178 161.363 64.6098 161.896 64.1936C162.441 63.7669 162.91 63.2387 163.305 62.6092V54.8951C162.91 54.3723 162.467 53.9668 161.977 53.6788C161.496 53.38 160.952 53.2306 160.344 53.2306ZM201.69 43.3399L205.916 43.788V67.5066H202.171L201.914 65.506C201.392 66.2529 200.736 66.8557 199.946 67.3145C199.156 67.7626 198.239 67.9867 197.193 67.9867C195.763 67.9867 194.579 67.6133 193.64 66.8664C192.712 66.1195 192.018 65.0739 191.56 63.7295C191.112 62.3745 190.887 60.8007 190.887 59.0082C190.887 57.2797 191.154 55.7433 191.688 54.399C192.221 53.0546 192.989 51.9983 193.992 51.2301C195.006 50.4619 196.206 50.0778 197.593 50.0778C198.426 50.0778 199.183 50.2218 199.866 50.5099C200.549 50.798 201.157 51.2247 201.69 51.7902V43.3399ZM198.73 53.2306C197.663 53.2306 196.82 53.6948 196.201 54.623C195.593 55.5406 195.289 57.0077 195.289 59.0242C195.289 60.4433 195.417 61.5796 195.673 62.4332C195.929 63.2761 196.292 63.8842 196.761 64.2577C197.231 64.6311 197.785 64.8178 198.426 64.8178C199.13 64.8178 199.749 64.6098 200.282 64.1936C200.826 63.7669 201.296 63.2387 201.69 62.6092V54.8951C201.296 54.3723 200.853 53.9668 200.362 53.6788C199.882 53.38 199.338 53.2306 198.73 53.2306ZM214.657 60.3206C214.743 61.3769 214.983 62.2358 215.378 62.8973C215.783 63.5588 216.301 64.0443 216.93 64.3537C217.56 64.6631 218.258 64.8178 219.027 64.8178C219.838 64.8178 220.6 64.6898 221.315 64.4337C222.03 64.1776 222.734 63.8202 223.428 63.3614L225.188 65.7781C224.399 66.4396 223.455 66.9731 222.356 67.3785C221.267 67.784 220.067 67.9867 218.755 67.9867C216.919 67.9867 215.372 67.6079 214.113 66.8504C212.865 66.0928 211.921 65.0419 211.281 63.6975C210.64 62.3531 210.32 60.806 210.32 59.0562C210.32 57.3704 210.635 55.85 211.265 54.495C211.894 53.1399 212.801 52.0676 213.985 51.2781C215.17 50.4779 216.599 50.0778 218.274 50.0778C219.832 50.0778 221.177 50.4192 222.308 51.102C223.439 51.7849 224.313 52.7665 224.932 54.0469C225.551 55.3165 225.861 56.8476 225.861 58.6401C225.861 58.9282 225.85 59.2216 225.829 59.5204C225.818 59.8191 225.802 60.0858 225.781 60.3206H214.657ZM218.29 53.0546C217.266 53.0546 216.423 53.4227 215.762 54.1589C215.111 54.8844 214.727 56.0367 214.609 57.6158H221.747C221.726 56.1861 221.427 55.0711 220.851 54.2709C220.286 53.46 219.432 53.0546 218.29 53.0546ZM245.597 50.5579L239.772 67.5066H234.811L228.953 50.5579H233.498L237.355 64.1296L241.292 50.5579H245.597ZM253.043 60.3206C253.128 61.3769 253.368 62.2358 253.763 62.8973C254.169 63.5588 254.686 64.0443 255.316 64.3537C255.945 64.6631 256.644 64.8178 257.412 64.8178C258.223 64.8178 258.986 64.6898 259.701 64.4337C260.416 64.1776 261.12 63.8202 261.813 63.3614L263.574 65.7781C262.784 66.4396 261.84 66.9731 260.741 67.3785C259.653 67.784 258.453 67.9867 257.14 67.9867C255.305 67.9867 253.758 67.6079 252.499 66.8504C251.251 66.0928 250.306 65.0419 249.666 63.6975C249.026 62.3531 248.706 60.806 248.706 59.0562C248.706 57.3704 249.021 55.85 249.65 54.495C250.28 53.1399 251.187 52.0676 252.371 51.2781C253.555 50.4779 254.985 50.0778 256.66 50.0778C258.218 50.0778 259.562 50.4192 260.693 51.102C261.824 51.7849 262.699 52.7665 263.318 54.0469C263.937 55.3165 264.246 56.8476 264.246 58.6401C264.246 58.9282 264.235 59.2216 264.214 59.5204C264.203 59.8191 264.187 60.0858 264.166 60.3206H253.043ZM256.676 53.0546C255.652 53.0546 254.809 53.4227 254.147 54.1589C253.497 54.8844 253.112 56.0367 252.995 57.6158H260.133C260.112 56.1861 259.813 55.0711 259.237 54.2709C258.671 53.46 257.818 53.0546 256.676 53.0546ZM276.701 43.788V62.5772C276.701 63.3134 276.914 63.8362 277.341 64.1456C277.779 64.455 278.366 64.6098 279.102 64.6098C279.561 64.6098 280.003 64.5617 280.43 64.4657C280.857 64.359 281.262 64.231 281.646 64.0816L282.687 66.9624C282.153 67.2291 281.502 67.4639 280.734 67.6666C279.977 67.88 279.096 67.9867 278.093 67.9867C276.248 67.9867 274.85 67.4585 273.9 66.4023C272.951 65.346 272.476 63.9216 272.476 62.1291V46.7809H267.402V43.788H276.701ZM294.87 50.0778C296.555 50.0778 297.985 50.4459 299.159 51.1821C300.332 51.9183 301.223 52.9586 301.831 54.3029C302.45 55.6366 302.76 57.1997 302.76 58.9922C302.76 60.8274 302.45 62.4172 301.831 63.7615C301.213 65.1059 300.316 66.1462 299.143 66.8824C297.969 67.6186 296.539 67.9867 294.854 67.9867C293.178 67.9867 291.749 67.6293 290.564 66.9144C289.391 66.1889 288.494 65.1592 287.876 63.8255C287.257 62.4812 286.947 60.8807 286.947 59.0242C286.947 57.2531 287.257 55.6953 287.876 54.3509C288.494 53.0066 289.396 51.9609 290.58 51.2141C291.765 50.4565 293.194 50.0778 294.87 50.0778ZM294.87 53.2626C293.685 53.2626 292.8 53.7268 292.213 54.655C291.637 55.5833 291.349 57.0397 291.349 59.0242C291.349 61.0301 291.637 62.4972 292.213 63.4254C292.789 64.343 293.669 64.8018 294.854 64.8018C296.038 64.8018 296.918 64.343 297.494 63.4254C298.07 62.4972 298.359 61.0194 298.359 58.9922C298.359 57.0183 298.07 55.5726 297.494 54.655C296.918 53.7268 296.043 53.2626 294.87 53.2626ZM315.775 50.0778C317.269 50.0778 318.464 50.4459 319.36 51.1821C320.267 51.9076 320.923 52.9372 321.328 54.2709C321.744 55.6046 321.952 57.1784 321.952 58.9922C321.952 60.7314 321.702 62.2785 321.2 63.6335C320.699 64.9885 319.963 66.0555 318.992 66.8344C318.031 67.6026 316.847 67.9867 315.439 67.9867C313.71 67.9867 312.313 67.3732 311.246 66.1462V74.0363L307.02 74.4845V50.5579H310.733L310.957 52.6225C311.63 51.7476 312.382 51.1074 313.214 50.7019C314.046 50.2858 314.9 50.0778 315.775 50.0778ZM314.542 53.2466C313.828 53.2466 313.198 53.46 312.654 53.8868C312.12 54.3136 311.651 54.8417 311.246 55.4712V63.0573C311.63 63.6335 312.067 64.0656 312.558 64.3537C313.049 64.6418 313.604 64.7858 314.222 64.7858C315.3 64.7858 316.122 64.3377 316.687 63.4414C317.263 62.5345 317.551 61.0675 317.551 59.0402C317.551 57.6105 317.434 56.4742 317.199 55.6313C316.975 54.7777 316.639 54.1696 316.191 53.8068C315.743 53.4334 315.193 53.2466 314.542 53.2466ZM329.814 60.3206C329.9 61.3769 330.14 62.2358 330.534 62.8973C330.94 63.5588 331.457 64.0443 332.087 64.3537C332.716 64.6631 333.415 64.8178 334.183 64.8178C334.994 64.8178 335.757 64.6898 336.472 64.4337C337.187 64.1776 337.891 63.8202 338.585 63.3614L340.345 65.7781C339.555 66.4396 338.611 66.9731 337.512 67.3785C336.424 67.784 335.224 67.9867 333.911 67.9867C332.076 67.9867 330.529 67.6079 329.27 66.8504C328.022 66.0928 327.077 65.0419 326.437 63.6975C325.797 62.3531 325.477 60.806 325.477 59.0562C325.477 57.3704 325.792 55.85 326.421 54.495C327.051 53.1399 327.958 52.0676 329.142 51.2781C330.326 50.4779 331.756 50.0778 333.431 50.0778C334.989 50.0778 336.333 50.4192 337.464 51.102C338.595 51.7849 339.47 52.7665 340.089 54.0469C340.708 55.3165 341.017 56.8476 341.017 58.6401C341.017 58.9282 341.007 59.2216 340.985 59.5204C340.975 59.8191 340.959 60.0858 340.937 60.3206H329.814ZM333.447 53.0546C332.423 53.0546 331.58 53.4227 330.918 54.1589C330.268 54.8844 329.883 56.0367 329.766 57.6158H336.904C336.883 56.1861 336.584 55.0711 336.008 54.2709C335.442 53.46 334.589 53.0546 333.447 53.0546ZM345.566 67.5066V64.5777H347.951V53.4707H345.566V50.5579H351.168L351.952 54.447C352.571 53.0066 353.349 51.9236 354.288 51.1981C355.227 50.4619 356.406 50.0938 357.825 50.0938C358.369 50.0938 358.85 50.1364 359.266 50.2218C359.693 50.3072 360.098 50.4192 360.482 50.5579L359.218 54.1109C358.887 54.0255 358.572 53.9615 358.273 53.9188C357.975 53.8655 357.639 53.8388 357.265 53.8388C356.092 53.8388 355.067 54.2976 354.192 55.2152C353.328 56.1221 352.656 57.3544 352.176 58.9122V64.5777H355.553V67.5066H345.566ZM356.913 57.1677V52.6705L357.489 50.5579H360.482L359.73 57.1677H356.913Z" fill="#C778DD"/>
</svg>
