<svg width="81" height="127" viewBox="0 0 81 127" fill="none" xmlns="http://www.w3.org/2000/svg">
<mask id="path-1-outside-1_0_129" maskUnits="userSpaceOnUse" x="0" y="0" width="81.1473" height="127.231" fill="black">
<rect fill="white" width="81.1473" height="127.231"/>
<path fill-rule="evenodd" clip-rule="evenodd" d="M1.00182 1.00182H40.3909H79.78V42.6673V84.3327V125.998H40.3909H1.00182V84.3327H40.3909V42.6673H1.00182V1.00182Z"/>
</mask>
<path d="M1.00182 1.00182V0H0V1.00182H1.00182ZM79.78 1.00182H80.7819V0H79.78V1.00182ZM79.78 125.998V127H80.7819V125.998H79.78ZM1.00182 125.998H0V127H1.00182V125.998ZM1.00182 84.3327V83.3309H0V84.3327H1.00182ZM40.3909 84.3327V85.3345H41.3928V84.3327H40.3909ZM40.3909 42.6673H41.3928V41.6655H40.3909V42.6673ZM1.00182 42.6673H0V43.6691H1.00182V42.6673ZM40.3909 0H1.00182V2.00364H40.3909V0ZM79.78 0H40.3909V2.00364H79.78V0ZM80.7819 42.6673V1.00182H78.7782V42.6673H80.7819ZM80.7819 84.3327V42.6673H78.7782V84.3327H80.7819ZM80.7819 125.998V84.3327H78.7782V125.998H80.7819ZM40.3909 127H79.78V124.996H40.3909V127ZM40.3909 124.996H1.00182V127H40.3909V124.996ZM2.00364 125.998V84.3327H0V125.998H2.00364ZM1.00182 85.3345H40.3909V83.3309H1.00182V85.3345ZM39.3891 42.6673V84.3327H41.3928V42.6673H39.3891ZM1.00182 43.6691H40.3909V41.6655H1.00182V43.6691ZM0 1.00182V42.6673H2.00364V1.00182H0Z" fill="#C778DD" mask="url(#path-1-outside-1_0_129)"/>
</svg>
