<svg width="287" height="17" viewBox="0 0 287 17" fill="none" xmlns="http://www.w3.org/2000/svg">
<path d="M4.91077 1.48444C5.65968 1.48444 6.29091 1.58341 6.80445 1.78133C7.32334 1.97391 7.80479 2.25208 8.24878 2.61584L7.27787 3.77131C6.94621 3.49314 6.59047 3.28719 6.21067 3.15345C5.83086 3.01972 5.42698 2.95285 4.99903 2.95285C4.44804 2.95285 3.93985 3.09193 3.47446 3.3701C3.00906 3.64827 2.6346 4.10029 2.35109 4.72617C2.07292 5.35205 1.93383 6.18655 1.93383 7.22968C1.93383 8.25142 2.06757 9.07522 2.33504 9.7011C2.60251 10.327 2.96894 10.7817 3.43434 11.0652C3.89973 11.3487 4.4213 11.4905 4.99903 11.4905C5.59281 11.4905 6.08496 11.3942 6.47546 11.2016C6.86597 11.0037 7.211 10.7817 7.51057 10.5356L8.40927 11.683C8.04016 12.0415 7.57209 12.3517 7.00505 12.6138C6.43802 12.8706 5.74795 12.999 4.93484 12.999C3.9987 12.999 3.15617 12.7797 2.40725 12.341C1.66369 11.897 1.07526 11.2471 0.641956 10.3912C0.214005 9.53527 2.9892e-05 8.48144 2.9892e-05 7.22968C2.9892e-05 5.98863 0.222029 4.94282 0.666029 4.09227C1.11003 3.23637 1.70381 2.58909 2.44737 2.15044C3.19094 1.70644 4.01207 1.48444 4.91077 1.48444ZM12.0138 4.30892V10.2307C12.0138 10.7335 12.1128 11.0919 12.3107 11.3059C12.514 11.5199 12.8189 11.6269 13.2255 11.6269C13.6106 11.6269 13.9824 11.5119 14.3408 11.2818C14.6992 11.0518 14.9827 10.771 15.1914 10.4393V4.30892H16.9888V12.7823H15.4401L15.3278 11.6991C15.0122 12.1217 14.6136 12.4453 14.1322 12.67C13.6507 12.8893 13.1586 12.999 12.6558 12.999C11.8373 12.999 11.2248 12.7743 10.8182 12.325C10.417 11.8703 10.2164 11.2471 10.2164 10.4554V4.30892H12.0138ZM19.9193 12.7823V11.4985H21.163V5.58475H19.9193V4.30892H22.5352L22.8641 6.27482C23.1798 5.56335 23.5703 5.02306 24.0357 4.65395C24.5064 4.2795 25.1109 4.09227 25.8491 4.09227C26.1005 4.09227 26.3252 4.11367 26.5231 4.15646C26.7264 4.19391 26.927 4.24473 27.1249 4.30892L26.5873 5.84954C26.4161 5.8014 26.2557 5.76663 26.1059 5.74523C25.9561 5.71848 25.7903 5.70511 25.6084 5.70511C24.9932 5.70511 24.4609 5.93513 24.0116 6.39518C23.5676 6.85523 23.2172 7.50785 22.9604 8.35305V11.4985H24.6696V12.7823H19.9193ZM25.5362 7.43029V5.34402L25.7608 4.30892H27.1249L26.82 7.43029H25.5362ZM29.5419 12.7823V11.4985H30.7857V5.58475H29.5419V4.30892H32.1578L32.4868 6.27482C32.8024 5.56335 33.1929 5.02306 33.6583 4.65395C34.129 4.2795 34.7335 4.09227 35.4717 4.09227C35.7231 4.09227 35.9478 4.11367 36.1458 4.15646C36.349 4.19391 36.5496 4.24473 36.7476 4.30892L36.2099 5.84954C36.0388 5.8014 35.8783 5.76663 35.7285 5.74523C35.5787 5.71848 35.4129 5.70511 35.231 5.70511C34.6158 5.70511 34.0836 5.93513 33.6342 6.39518C33.1902 6.85523 32.8398 7.50785 32.5831 8.35305V11.4985H34.2922V12.7823H29.5419ZM35.1588 7.43029V5.34402L35.3835 4.30892H36.7476L36.4426 7.43029H35.1588ZM40.5768 9.12337C40.6142 9.7011 40.7373 10.1745 40.9459 10.5436C41.1545 10.9074 41.4274 11.1749 41.7644 11.346C42.1067 11.5172 42.4812 11.6028 42.8877 11.6028C43.305 11.6028 43.6901 11.5386 44.0432 11.4102C44.3963 11.2818 44.752 11.1 45.1104 10.8646L45.8887 11.9398C45.4929 12.2608 45.0302 12.5176 44.5006 12.7101C43.971 12.9027 43.4039 12.999 42.7995 12.999C41.9222 12.999 41.1786 12.8118 40.5688 12.4373C39.9643 12.0629 39.5042 11.5413 39.1886 10.8726C38.873 10.2039 38.7152 9.43096 38.7152 8.55366C38.7152 7.7031 38.8703 6.94349 39.1806 6.27482C39.4909 5.6008 39.9349 5.06853 40.5126 4.67803C41.0903 4.28217 41.7804 4.08424 42.5828 4.08424C43.3371 4.08424 43.9844 4.25542 44.5246 4.59778C45.0703 4.94015 45.4902 5.42694 45.7844 6.05817C46.084 6.68405 46.2338 7.43831 46.2338 8.32096C46.2338 8.46539 46.2284 8.60983 46.2177 8.75426C46.2124 8.89334 46.2044 9.01638 46.1937 9.12337H40.5768ZM42.5989 5.41624C42.0372 5.41624 41.5718 5.61684 41.2027 6.01805C40.8389 6.41925 40.6276 7.04513 40.5688 7.89568H44.4925C44.4765 7.09862 44.3053 6.48612 43.979 6.05817C43.658 5.63022 43.198 5.41624 42.5989 5.41624ZM48.7069 12.7823V4.30892H50.2556L50.392 5.40822C50.7451 4.97492 51.1623 4.64593 51.6438 4.42126C52.1252 4.19658 52.62 4.08424 53.1282 4.08424C53.9199 4.08424 54.511 4.30624 54.9015 4.75024C55.2974 5.18889 55.4953 5.80675 55.4953 6.60381V12.7823H53.6979V7.49448C53.6979 7.00233 53.6685 6.60648 53.6097 6.30691C53.5508 6.00735 53.4331 5.7907 53.2566 5.65696C53.0854 5.52323 52.8286 5.45636 52.4863 5.45636C52.2135 5.45636 51.954 5.51521 51.708 5.63289C51.4619 5.75058 51.2372 5.90571 51.0339 6.09829C50.8307 6.28552 50.6541 6.48612 50.5043 6.70009V12.7823H48.7069ZM65.4068 12.333C65.0965 12.5309 64.7248 12.6914 64.2915 12.8144C63.8582 12.9375 63.4061 12.999 62.9354 12.999C61.9511 12.999 61.2022 12.7449 60.6887 12.2367C60.1805 11.7232 59.9264 11.0491 59.9264 10.2146V5.61684H58.0407V4.30892H59.9264V2.41524L61.7238 2.19859V4.30892H64.5803L64.3797 5.61684H61.7238V10.1986C61.7238 10.6533 61.8361 10.993 62.0608 11.2177C62.2908 11.437 62.6653 11.5466 63.1841 11.5466C63.4944 11.5466 63.7806 11.5092 64.0427 11.4343C64.3048 11.3594 64.5429 11.2631 64.7569 11.1454L65.4068 12.333ZM71.6754 0.906709V10.4714C71.6754 10.8619 71.7931 11.1401 72.0284 11.3059C72.2692 11.4664 72.5794 11.5466 72.9592 11.5466C73.2053 11.5466 73.438 11.5199 73.6573 11.4664C73.8766 11.4129 74.0906 11.346 74.2992 11.2658L74.7566 12.5176C74.5052 12.6459 74.1949 12.7583 73.8258 12.8546C73.4621 12.9509 73.0448 12.999 72.5741 12.999C71.7235 12.999 71.0602 12.7609 70.5841 12.2849C70.1134 11.8034 69.878 11.1454 69.878 10.3109V2.23068H67.3183V0.906709H71.6754ZM84.9891 4.30892L82.0683 12.8144C81.849 13.4564 81.5681 14.0207 81.2258 14.5075C80.8834 14.9997 80.4448 15.3955 79.9098 15.6951C79.3749 15.9947 78.7116 16.1792 77.9199 16.2487L77.6872 14.9007C78.2595 14.8098 78.7142 14.676 79.0513 14.4995C79.3936 14.3283 79.6638 14.101 79.8617 13.8175C80.065 13.5339 80.2442 13.1889 80.3993 12.7823H79.7895L76.9329 4.30892H78.8426L80.977 11.5306L83.1435 4.30892H84.9891ZM103.448 12.7823H101.201L100.246 6.76429L99.2193 12.7823H97.0207L95.5844 4.30892H97.3176L98.2002 11.667L99.3798 5.38415H101.177L102.276 11.667L103.159 4.30892H104.828L103.448 12.7823ZM109.837 4.08424C110.666 4.08424 111.364 4.2688 111.931 4.63791C112.498 5.00701 112.926 5.52323 113.215 6.18655C113.509 6.84988 113.656 7.63089 113.656 8.52958C113.656 9.42293 113.507 10.2066 113.207 10.8806C112.913 11.5493 112.479 12.0709 111.907 12.4453C111.34 12.8144 110.647 12.999 109.829 12.999C109.01 12.999 108.315 12.8198 107.743 12.4614C107.176 12.0976 106.742 11.5814 106.443 10.9127C106.148 10.2441 106.001 9.45503 106.001 8.54563C106.001 7.66298 106.148 6.88732 106.443 6.21865C106.742 5.54998 107.178 5.02841 107.751 4.65395C108.323 4.27415 109.018 4.08424 109.837 4.08424ZM109.837 5.48043C109.19 5.48043 108.703 5.72918 108.377 6.22667C108.05 6.71882 107.887 7.4918 107.887 8.54563C107.887 9.59411 108.048 10.3671 108.368 10.8646C108.695 11.3621 109.182 11.6108 109.829 11.6108C110.476 11.6108 110.96 11.3621 111.281 10.8646C111.608 10.3671 111.771 9.58876 111.771 8.52958C111.771 7.48645 111.61 6.71882 111.289 6.22667C110.968 5.72918 110.484 5.48043 109.837 5.48043ZM116.146 12.7823V11.4985H117.389V5.58475H116.146V4.30892H118.761L119.09 6.27482C119.406 5.56335 119.797 5.02306 120.262 4.65395C120.733 4.2795 121.337 4.09227 122.075 4.09227C122.327 4.09227 122.551 4.11367 122.749 4.15646C122.953 4.19391 123.153 4.24473 123.351 4.30892L122.814 5.84954C122.642 5.8014 122.482 5.76663 122.332 5.74523C122.182 5.71848 122.017 5.70511 121.835 5.70511C121.219 5.70511 120.687 5.93513 120.238 6.39518C119.794 6.85523 119.443 7.50785 119.187 8.35305V11.4985H120.896V12.7823H116.146ZM121.762 7.43029V5.34402L121.987 4.30892H123.351L123.046 7.43029H121.762ZM133.15 4.30892L129.724 8.09628L133.511 12.7823H131.313L127.67 8.14443L131.056 4.30892H133.15ZM127.542 0.706106V12.7823H125.744V0.906709L127.542 0.706106ZM139.94 4.30892V11.4664H142.243V12.7823H135.607V11.4664H138.143V5.62487H135.688V4.30892H139.94ZM138.689 0.160469C139.042 0.160469 139.325 0.267457 139.539 0.481432C139.759 0.695408 139.868 0.962877 139.868 1.28384C139.868 1.6048 139.759 1.87495 139.539 2.09427C139.325 2.3136 139.042 2.42326 138.689 2.42326C138.346 2.42326 138.066 2.3136 137.846 2.09427C137.627 1.87495 137.517 1.6048 137.517 1.28384C137.517 0.962877 137.627 0.695408 137.846 0.481432C138.066 0.267457 138.346 0.160469 138.689 0.160469ZM144.933 12.7823V4.30892H146.482L146.618 5.40822C146.971 4.97492 147.389 4.64593 147.87 4.42126C148.351 4.19658 148.846 4.08424 149.354 4.08424C150.146 4.08424 150.737 4.30624 151.128 4.75024C151.524 5.18889 151.722 5.80675 151.722 6.60381V12.7823H149.924V7.49448C149.924 7.00233 149.895 6.60648 149.836 6.30691C149.777 6.00735 149.659 5.7907 149.483 5.65696C149.312 5.52323 149.055 5.45636 148.713 5.45636C148.44 5.45636 148.18 5.51521 147.934 5.63289C147.688 5.75058 147.463 5.90571 147.26 6.09829C147.057 6.28552 146.88 6.48612 146.731 6.70009V12.7823H144.933ZM161.689 3.23369L162.171 4.72617C161.834 4.83851 161.462 4.9134 161.055 4.95084C160.654 4.98829 160.205 5.00701 159.707 5.00701C160.215 5.23169 160.598 5.52055 160.855 5.87361C161.112 6.22132 161.24 6.64927 161.24 7.15747C161.24 7.70845 161.106 8.2006 160.839 8.6339C160.571 9.0672 160.189 9.40688 159.691 9.65296C159.194 9.89903 158.597 10.0221 157.902 10.0221C157.656 10.0221 157.442 10.0114 157.26 9.98997C157.083 9.96857 156.91 9.9338 156.738 9.88565C156.631 9.96055 156.54 10.0622 156.466 10.1906C156.396 10.3136 156.361 10.4447 156.361 10.5837C156.361 10.7549 156.431 10.9047 156.57 11.0331C156.714 11.1561 156.998 11.2177 157.42 11.2177H158.897C159.501 11.2177 160.034 11.322 160.494 11.5306C160.959 11.7339 161.323 12.0147 161.585 12.3731C161.852 12.7262 161.986 13.1274 161.986 13.5767C161.986 14.4219 161.622 15.0772 160.895 15.5426C160.167 16.008 159.119 16.2407 157.749 16.2407C156.781 16.2407 156.022 16.1418 155.471 15.9438C154.92 15.7459 154.532 15.4517 154.307 15.0612C154.082 14.6707 153.97 14.1919 153.97 13.6249H155.583C155.583 13.9191 155.639 14.1625 155.751 14.3551C155.869 14.5476 156.086 14.6921 156.401 14.7884C156.717 14.8847 157.172 14.9328 157.765 14.9328C158.359 14.9328 158.83 14.882 159.178 14.7803C159.531 14.6841 159.785 14.5423 159.94 14.3551C160.1 14.1732 160.181 13.9539 160.181 13.6971C160.181 13.3547 160.031 13.0899 159.731 12.9027C159.432 12.7155 159.031 12.6219 158.528 12.6219H157.075C156.273 12.6219 155.685 12.4587 155.31 12.1324C154.941 11.8061 154.756 11.4263 154.756 10.993C154.756 10.7041 154.837 10.4259 154.997 10.1585C155.163 9.891 155.398 9.65831 155.703 9.46038C155.195 9.19291 154.823 8.86927 154.588 8.48946C154.358 8.10431 154.243 7.63891 154.243 7.09327C154.243 6.49414 154.393 5.9699 154.692 5.52055C154.992 5.07121 155.406 4.72082 155.936 4.4694C156.471 4.21798 157.086 4.09227 157.782 4.09227C158.461 4.09227 159.028 4.0575 159.483 3.98796C159.937 3.91306 160.333 3.80875 160.67 3.67502C161.013 3.54128 161.352 3.39417 161.689 3.23369ZM157.798 5.32798C157.225 5.32798 156.795 5.49113 156.506 5.81745C156.217 6.13841 156.072 6.55834 156.072 7.07723C156.072 7.61216 156.22 8.04279 156.514 8.3691C156.813 8.69007 157.249 8.85055 157.822 8.85055C158.351 8.85055 158.755 8.69542 159.033 8.38515C159.317 8.07489 159.459 7.63356 159.459 7.06118C159.459 6.48344 159.319 6.05014 159.041 5.76128C158.763 5.47241 158.349 5.32798 157.798 5.32798ZM177.195 4.08424C178.024 4.08424 178.723 4.2688 179.29 4.63791C179.857 5.00701 180.285 5.52323 180.573 6.18655C180.868 6.84988 181.015 7.63089 181.015 8.52958C181.015 9.42293 180.865 10.2066 180.565 10.8806C180.271 11.5493 179.838 12.0709 179.265 12.4453C178.698 12.8144 178.006 12.999 177.187 12.999C176.369 12.999 175.673 12.8198 175.101 12.4614C174.534 12.0976 174.101 11.5814 173.801 10.9127C173.507 10.2441 173.36 9.45503 173.36 8.54563C173.36 7.66298 173.507 6.88732 173.801 6.21865C174.101 5.54998 174.537 5.02841 175.109 4.65395C175.681 4.27415 176.377 4.08424 177.195 4.08424ZM177.195 5.48043C176.548 5.48043 176.061 5.72918 175.735 6.22667C175.409 6.71882 175.245 7.4918 175.245 8.54563C175.245 9.59411 175.406 10.3671 175.727 10.8646C176.053 11.3621 176.54 11.6108 177.187 11.6108C177.835 11.6108 178.319 11.3621 178.64 10.8646C178.966 10.3671 179.129 9.58876 179.129 8.52958C179.129 7.48645 178.969 6.71882 178.648 6.22667C178.327 5.72918 177.843 5.48043 177.195 5.48043ZM183.424 12.7823V4.30892H184.972L185.109 5.40822C185.462 4.97492 185.879 4.64593 186.361 4.42126C186.842 4.19658 187.337 4.08424 187.845 4.08424C188.637 4.08424 189.228 4.30624 189.618 4.75024C190.014 5.18889 190.212 5.80675 190.212 6.60381V12.7823H188.415V7.49448C188.415 7.00233 188.385 6.60648 188.326 6.30691C188.268 6.00735 188.15 5.7907 187.973 5.65696C187.802 5.52323 187.545 5.45636 187.203 5.45636C186.93 5.45636 186.671 5.51521 186.425 5.63289C186.179 5.75058 185.954 5.90571 185.751 6.09829C185.547 6.28552 185.371 6.48612 185.221 6.70009V12.7823H183.424Z" fill="#ABB2BF"/>
<path d="M208.101 5.23971C208.101 4.77966 208.013 4.40788 207.836 4.12437C207.665 3.8355 207.414 3.6242 207.082 3.49046C206.751 3.35673 206.352 3.28986 205.887 3.28986H204.739V7.30992H205.951C206.389 7.30992 206.767 7.24306 207.082 7.10932C207.403 6.97024 207.652 6.74824 207.828 6.44332C208.01 6.13841 208.101 5.7372 208.101 5.23971ZM210.38 5.22366C210.38 6.08491 210.196 6.79103 209.826 7.34202C209.463 7.88766 208.952 8.29154 208.294 8.55366C207.636 8.81043 206.876 8.93881 206.015 8.93881H204.739V12.7823H202.541V1.68504H205.806C207.245 1.68504 208.366 1.97659 209.168 2.55967C209.976 3.14275 210.38 4.03075 210.38 5.22366ZM215.686 4.04412C216.531 4.04412 217.248 4.22868 217.836 4.59778C218.425 4.96689 218.871 5.48846 219.176 6.16248C219.487 6.83115 219.642 7.61484 219.642 8.51354C219.642 9.43363 219.487 10.2307 219.176 10.9047C218.866 11.5787 218.417 12.1003 217.828 12.4694C217.24 12.8385 216.523 13.0231 215.678 13.0231C214.838 13.0231 214.121 12.8439 213.527 12.4855C212.939 12.1217 212.49 11.6055 212.179 10.9368C211.869 10.2628 211.714 9.46038 211.714 8.52958C211.714 7.64159 211.869 6.86058 212.179 6.18655C212.49 5.51253 212.942 4.98829 213.535 4.61383C214.129 4.23403 214.846 4.04412 215.686 4.04412ZM215.686 5.64092C215.092 5.64092 214.648 5.87361 214.354 6.33901C214.065 6.80441 213.92 7.5346 213.92 8.52958C213.92 9.53527 214.065 10.2708 214.354 10.7362C214.643 11.1963 215.084 11.4263 215.678 11.4263C216.272 11.4263 216.713 11.1963 217.002 10.7362C217.291 10.2708 217.435 9.52992 217.435 8.51354C217.435 7.5239 217.291 6.79906 217.002 6.33901C216.713 5.87361 216.274 5.64092 215.686 5.64092ZM221.858 12.7823V11.3139H223.054V5.74523H221.858V4.28485H224.666L225.06 6.2347C225.37 5.51253 225.76 4.96957 226.231 4.60581C226.702 4.2367 227.293 4.05215 228.005 4.05215C228.277 4.05215 228.518 4.07355 228.727 4.11634C228.941 4.15914 229.144 4.2153 229.337 4.28485L228.703 6.06619C228.537 6.0234 228.379 5.9913 228.229 5.9699C228.079 5.94316 227.911 5.92978 227.724 5.92978C227.135 5.92978 226.622 6.15981 226.183 6.61985C225.75 7.07455 225.413 7.69241 225.172 8.47342V11.3139H226.865V12.7823H221.858ZM227.547 7.59879V5.34402L227.836 4.28485H229.337L228.959 7.59879H227.547ZM238.734 12.3089C238.419 12.5176 238.036 12.6887 237.587 12.8225C237.138 12.9562 236.651 13.0231 236.127 13.0231C235.089 13.0231 234.308 12.7556 233.784 12.2207C233.259 11.6804 232.997 10.9636 232.997 10.0702V5.78535H231.152V4.28485H232.997V2.41524L235.116 2.15846V4.28485H237.924L237.707 5.78535H235.116V10.0622C235.116 10.5008 235.223 10.8218 235.437 11.0251C235.651 11.2284 235.996 11.33 236.472 11.33C236.777 11.33 237.055 11.2952 237.306 11.2257C237.563 11.1508 237.796 11.0572 238.004 10.9448L238.734 12.3089ZM246.295 0.665986C246.862 0.665986 247.365 0.711456 247.803 0.802396C248.242 0.893335 248.641 1.01637 248.999 1.1715L248.389 2.59979C248.106 2.4821 247.809 2.39651 247.499 2.34302C247.188 2.28952 246.878 2.26278 246.568 2.26278C246.033 2.26278 245.642 2.36442 245.396 2.56769C245.155 2.76562 245.035 3.08391 245.035 3.52256V4.86258H247.844L247.611 6.37913H245.035V12.7823H242.925V6.37913H241.055V4.86258H242.925V3.47441C242.925 2.92343 243.059 2.43931 243.326 2.02206C243.593 1.59945 243.979 1.26779 244.481 1.02707C244.99 0.786347 245.594 0.665986 246.295 0.665986ZM254.176 4.04412C255.021 4.04412 255.738 4.22868 256.327 4.59778C256.915 4.96689 257.362 5.48846 257.667 6.16248C257.977 6.83115 258.132 7.61484 258.132 8.51354C258.132 9.43363 257.977 10.2307 257.667 10.9047C257.357 11.5787 256.907 12.1003 256.319 12.4694C255.73 12.8385 255.013 13.0231 254.168 13.0231C253.328 13.0231 252.612 12.8439 252.018 12.4855C251.429 12.1217 250.98 11.6055 250.67 10.9368C250.36 10.2628 250.204 9.46038 250.204 8.52958C250.204 7.64159 250.36 6.86058 250.67 6.18655C250.98 5.51253 251.432 4.98829 252.026 4.61383C252.62 4.23403 253.336 4.04412 254.176 4.04412ZM254.176 5.64092C253.583 5.64092 253.139 5.87361 252.844 6.33901C252.555 6.80441 252.411 7.5346 252.411 8.52958C252.411 9.53527 252.555 10.2708 252.844 10.7362C253.133 11.1963 253.574 11.4263 254.168 11.4263C254.762 11.4263 255.203 11.1963 255.492 10.7362C255.781 10.2708 255.926 9.52992 255.926 8.51354C255.926 7.5239 255.781 6.79906 255.492 6.33901C255.203 5.87361 254.765 5.64092 254.176 5.64092ZM264.312 0.89066V10.3109C264.312 10.68 264.419 10.9422 264.633 11.0973C264.853 11.2524 265.147 11.33 265.516 11.33C265.746 11.33 265.968 11.3059 266.182 11.2578C266.396 11.2043 266.599 11.1401 266.792 11.0652L267.313 12.5095C267.046 12.6433 266.72 12.7609 266.335 12.8626C265.955 12.9696 265.513 13.0231 265.011 13.0231C264.085 13.0231 263.384 12.7583 262.908 12.2287C262.432 11.6991 262.194 10.985 262.194 10.0863V2.39116H259.65V0.89066H264.312ZM274.778 4.28485V11.2818H277.016V12.7823H270.172V11.2818H272.659V5.78535H270.252V4.28485H274.778ZM273.406 -1.24351e-05C273.796 -1.24351e-05 274.112 0.120349 274.352 0.361071C274.598 0.601794 274.721 0.901359 274.721 1.25977C274.721 1.61818 274.598 1.92042 274.352 2.16649C274.112 2.40721 273.796 2.52757 273.406 2.52757C273.015 2.52757 272.697 2.40721 272.451 2.16649C272.205 1.92042 272.082 1.61818 272.082 1.25977C272.082 0.901359 272.205 0.601794 272.451 0.361071C272.697 0.120349 273.015 -1.24351e-05 273.406 -1.24351e-05ZM283.044 4.04412C283.889 4.04412 284.606 4.22868 285.195 4.59778C285.783 4.96689 286.23 5.48846 286.535 6.16248C286.845 6.83115 287 7.61484 287 8.51354C287 9.43363 286.845 10.2307 286.535 10.9047C286.224 11.5787 285.775 12.1003 285.187 12.4694C284.598 12.8385 283.881 13.0231 283.036 13.0231C282.196 13.0231 281.479 12.8439 280.886 12.4855C280.297 12.1217 279.848 11.6055 279.538 10.9368C279.227 10.2628 279.072 9.46038 279.072 8.52958C279.072 7.64159 279.227 6.86058 279.538 6.18655C279.848 5.51253 280.3 4.98829 280.894 4.61383C281.488 4.23403 282.204 4.04412 283.044 4.04412ZM283.044 5.64092C282.45 5.64092 282.006 5.87361 281.712 6.33901C281.423 6.80441 281.279 7.5346 281.279 8.52958C281.279 9.53527 281.423 10.2708 281.712 10.7362C282.001 11.1963 282.442 11.4263 283.036 11.4263C283.63 11.4263 284.071 11.1963 284.36 10.7362C284.649 10.2708 284.793 9.52992 284.793 8.51354C284.793 7.5239 284.649 6.79906 284.36 6.33901C284.071 5.87361 283.633 5.64092 283.044 5.64092Z" fill="white"/>
</svg>
