<svg width="79" height="125" viewBox="0 0 79 125" fill="none" xmlns="http://www.w3.org/2000/svg">
<mask id="path-1-inside-1_0_123" fill="white">
<path fill-rule="evenodd" clip-rule="evenodd" d="M0 0H39.3903H78.7805V41.6667H39.3903V83.3333H78.7805V125H39.3903H0V83.3333V41.6667V0Z"/>
</mask>
<path d="M0 0V-1.00185H-1.00185V0H0ZM78.7805 0H79.7824V-1.00185H78.7805V0ZM78.7805 41.6667V42.6685H79.7824V41.6667H78.7805ZM39.3903 41.6667V40.6648H38.3884V41.6667H39.3903ZM39.3903 83.3333H38.3884V84.3352H39.3903V83.3333ZM78.7805 83.3333H79.7824V82.3315H78.7805V83.3333ZM78.7805 125V126.002H79.7824V125H78.7805ZM0 125H-1.00185V126.002H0V125ZM39.3903 -1.00185H0V1.00185H39.3903V-1.00185ZM78.7805 -1.00185H39.3903V1.00185H78.7805V-1.00185ZM79.7824 41.6667V0H77.7787V41.6667H79.7824ZM39.3903 42.6685H78.7805V40.6648H39.3903V42.6685ZM40.3921 83.3333V41.6667H38.3884V83.3333H40.3921ZM39.3903 84.3352H78.7805V82.3315H39.3903V84.3352ZM77.7787 83.3333V125H79.7824V83.3333H77.7787ZM78.7805 123.998H39.3903V126.002H78.7805V123.998ZM0 126.002H39.3903V123.998H0V126.002ZM-1.00185 83.3333V125H1.00185V83.3333H-1.00185ZM-1.00185 41.6667V83.3333H1.00185V41.6667H-1.00185ZM-1.00185 0V41.6667H1.00185V0H-1.00185Z" fill="#C778DD" mask="url(#path-1-inside-1_0_123)"/>
</svg>
